<?xml version="1.0" encoding="UTF-8"?>
<svg width="16px" height="16px" viewBox="0 0 16 16" version="1.1" xmlns="http://www.w3.org/2000/svg" xmlns:xlink="http://www.w3.org/1999/xlink">
    <title>hdrm-small-icon-sparkles</title>
    <g id="hdrm-small-icon-sparkles" stroke="none" stroke-width="1" fill="none" fill-rule="evenodd">
        <g id="Group-2" transform="translate(3.0001, 3.5001)" fill="#123BFF" fill-rule="nonzero">
            <path d="M3.00008333,3 C3.27622571,3 3.50008333,3.22385763 3.50008333,3.5 C3.5000373,4.60415192 4.39484799,5.49941014 5.49899979,5.49991621 L5.5,5.49991667 L5.5,5.49991667 C5.77614237,5.49991667 6,5.72377429 6,5.99991667 C6,6.27605904 5.77614237,6.49991667 5.5,6.49991667 L5.50000025,6.49891696 C4.39543086,6.4984107 3.49959005,7.3934307 3.49908379,8.49800008 C3.49908364,8.4983334 3.49908357,8.49866672 3.49908358,8.49900004 L3.50008333,8.5 L3.50008333,8.5 C3.50008333,8.77614237 3.27622571,9 3.00008333,9 C2.72394096,9 2.50008333,8.77614237 2.50008333,8.5 L2.50091649,8.49899996 C2.50087049,7.39443046 1.6054027,6.49903726 0.500833203,6.49908326 C0.500555411,6.49908327 0.50027762,6.49908334 0.499999828,6.49908347 L0.5,6.49991667 L0.5,6.49991667 C0.223857625,6.49991667 0,6.27605904 0,5.99991667 C0,5.72377429 0.223857625,5.49991667 0.5,5.49991667 L0.501000208,5.49991621 C1.60517896,5.49941013 2.5000373,4.60417886 2.50008333,3.5 L2.50008333,3.5 L2.50008333,3.5 C2.50008333,3.22385763 2.72394096,3 3.00008333,3 Z M8.00005,0 C8.27619237,0 8.50005,0.223857625 8.50005,0.5 C8.50002238,1.05187784 8.94712196,1.49942477 9.49899955,1.49994905 L9.5,1.49995 L9.5,1.49995 C9.77614237,1.49995 10,1.72380763 10,1.99995 C10,2.27609237 9.77614237,2.49995 9.5,2.49995 L9.5000005,2.49895055 C8.947716,2.49842588 8.49957562,2.9457156 8.49905095,3.4980001 C8.49905063,3.49833342 8.49905048,3.49866673 8.4990505,3.49900005 L8.50005,3.5 L8.50005,3.5 C8.50005,3.77614237 8.27619237,4 8.00005,4 C7.72390763,4 7.50005,3.77614237 7.50005,3.5 L7.50094959,3.49899995 C7.50092201,2.9467152 7.0531844,2.49902232 6.50089965,2.49904991 C6.50059963,2.49904992 6.50029961,2.49905007 6.4999996,2.49905036 L6.5,2.49995 L6.5,2.49995 C6.22385763,2.49995 6,2.27609237 6,1.99995 C6,1.72380763 6.22385763,1.49995 6.5,1.49995 L6.50100045,1.49994905 C7.0528942,1.49942475 7.50002238,1.051894 7.50005,0.5 L7.50005,0.5 L7.50005,0.5 C7.50005,0.223857625 7.72390763,0 8.00005,0 Z" id="Shape"></path>
        </g>
        <g id="Group" transform="translate(3.5001, 7.0001)"></g>
    </g>
</svg>