<?xml version="1.0" encoding="UTF-8"?>
<svg width="24px" height="24px" viewBox="0 0 24 24" version="1.1" xmlns="http://www.w3.org/2000/svg" xmlns:xlink="http://www.w3.org/1999/xlink">
    <title>hdrm-icon-sparkles</title>
    <g id="hdrm-icon-sparkles" stroke="none" stroke-width="1" fill="none" fill-rule="evenodd" fill-opacity="0.1" stroke-linejoin="round">
        <path d="M6.24013134,15.5370857 L4.03719994,14.9075635 C3.48858789,14.7507891 3.17094078,14.1789603 3.32771525,13.6303483 C3.42578151,13.287178 3.69402971,13.0189298 4.03719994,12.9208636 L6.24013134,12.2913415 C7.03192924,12.0650728 7.65085927,11.4461428 7.87712791,10.6543449 L8.50665002,8.4514135 C8.66342449,7.90280145 9.23525325,7.58515434 9.7838653,7.74192881 C10.1270355,7.83999507 10.3952837,8.10824327 10.49335,8.4514135 L11.1228721,10.6543449 C11.3491407,11.4461428 11.9680708,12.0650728 12.7598687,12.2913415 L14.9628001,12.9208636 C15.5114121,13.0776381 15.8290592,13.6494668 15.6722847,14.1980789 C15.5742185,14.5412491 15.3059703,14.8094973 14.9628001,14.9075635 L12.7598687,15.5370857 C11.9680708,15.7633543 11.3491407,16.3822843 11.1228721,17.1740822 L10.49335,19.3770136 C10.3365755,19.9256257 9.76474675,20.2432728 9.2161347,20.0864983 C8.87296448,19.9884321 8.60471628,19.7201839 8.50665002,19.3770136 L7.87712791,17.1740822 C7.66826455,16.4431919 7.1248258,15.8595972 6.41968523,15.5961718 L6.24013134,15.5370857 Z" id="Star" stroke="#181818" fill="#181818"></path>
        <path d="M15.7643033,7.3839989 L14.4478899,7.00781318 C14.1200539,6.91412891 13.9302364,6.5724192 14.0239206,6.24458319 C14.0825224,6.03951376 14.2428205,5.87921575 14.4478899,5.82061395 L15.7643033,5.44442822 C16.2374607,5.30921609 16.6073169,4.93935991 16.742529,4.46620247 L17.1187148,3.14978907 C17.212399,2.82195306 17.5541087,2.63213556 17.8819447,2.72581983 C18.0870142,2.78442163 18.2473122,2.94471964 18.305914,3.14978907 L18.6820997,4.46620247 C18.8173118,4.93935991 19.187168,5.30921609 19.6603255,5.44442822 L20.9767389,5.82061395 C21.3045749,5.91429822 21.4943924,6.25600792 21.4007081,6.58384394 C21.3421063,6.78891337 21.1818083,6.94921138 20.9767389,7.00781318 L19.6603255,7.3839989 C19.187168,7.51921104 18.8173118,7.88906722 18.6820997,8.36222465 L18.305914,9.67863805 C18.2122297,10.0064741 17.87052,10.1962916 17.542684,10.1026073 C17.3376146,10.0440055 17.1773166,9.88370748 17.1187148,9.67863805 L16.742529,8.36222465 C16.6177178,7.92546394 16.2929732,7.57672324 15.8715999,7.4193072 L15.7643033,7.3839989 Z" id="Star" stroke="#181818" fill="#181818"></path>
    </g>
</svg>