<?xml version="1.0" encoding="UTF-8"?>
<svg width="24px" height="24px" viewBox="0 0 24 24" version="1.1" xmlns="http://www.w3.org/2000/svg" xmlns:xlink="http://www.w3.org/1999/xlink">
    <title>hdrm-icon-pointer</title>
    <g id="hdrm-icon-pointer" stroke="none" stroke-width="1" fill="none" fill-rule="evenodd" fill-opacity="0.1" stroke-linejoin="round">
        <path d="M5,13.5 L5,13 L5,13 L5,12.8027756 C5,11.6765012 5.56288303,10.6247446 6.5,10 C6.94336074,9.70442617 7.54238557,9.82423114 7.8379594,10.2675919 C7.94361804,10.4260798 8,10.6122968 8,10.8027756 L8,14 L8,3.5 C8,2.67157288 8.67157288,2 9.5,2 C10.3284271,2 11,2.67157288 11,3.5 L11,12 L11,7.5 C11,6.67157288 11.6715729,6 12.5,6 C13.3284271,6 14,6.67157288 14,7.5 L14,12 L14,8.5 C14,7.67157288 14.6715729,7 15.5,7 C16.3284271,7 17,7.67157288 17,8.5 L17,12 L17,12 L17,9.5 C17,8.67157288 17.6715729,8 18.5,8 C19.3284271,8 20,8.67157288 20,9.5 L20,14.5 C20,18.0898509 17.0898509,21 13.5,21 L12.5,21 C8.35786438,21 5,17.6421356 5,13.5 Z" id="Path-17" stroke="#181818" fill="#181818"></path>
    </g>
</svg>