<?xml version="1.0" encoding="UTF-8"?>
<svg width="24px" height="24px" viewBox="0 0 24 24" version="1.1" xmlns="http://www.w3.org/2000/svg" xmlns:xlink="http://www.w3.org/1999/xlink">
    <title>hdrm-icon-truck</title>
    <g id="hdrm-icon-truck" stroke="none" stroke-width="1" fill="none" fill-rule="evenodd" fill-opacity="0.1">
        <path d="M4,4 L13,4 C14.1045695,4 15,4.8954305 15,6 L15,17 L15,17 L4,17 C2.8954305,17 2,16.1045695 2,15 L2,6 C2,4.8954305 2.8954305,4 4,4 Z" id="Rectangle" stroke="#181818" fill="#181818"></path>
        <path d="M15,7 L17.9370143,7 C18.6016498,7 19.2228661,7.33017201 19.5947116,7.88105429 L21.6576973,10.9373294 C21.8807962,11.2678462 22,11.6575089 22,12.0562751 L22,15 C22,16.1045695 21.1045695,17 20,17 L15,17 L15,17 L15,7 Z" id="Rectangle" stroke="#181818" fill="#181818"></path>
        <line x1="18" y1="11" x2="19" y2="11" id="Path-24" stroke="#181818" fill="#181818" stroke-linecap="round" stroke-linejoin="round"></line>
        <path d="M5,17 C5,18.3807119 6.11928813,19.5 7.5,19.5 C8.88071187,19.5 10,18.3807119 10,17" id="Path" stroke="#181818" fill="#181818"></path>
        <path d="M15,17 C15,18.3807119 16.1192881,19.5 17.5,19.5 C18.8807119,19.5 20,18.3807119 20,17" id="Path" stroke="#181818" fill="#181818"></path>
    </g>
</svg>