<?xml version="1.0" encoding="UTF-8"?>
<svg width="670px" height="136px" viewBox="0 0 670 136" version="1.1" xmlns="http://www.w3.org/2000/svg" xmlns:xlink="http://www.w3.org/1999/xlink">
    <title>headeroom-full-logo</title>
    <defs>
        <linearGradient x1="34.9918614%" y1="49.1211657%" x2="50%" y2="51.3888889%" id="linearGradient-1">
            <stop stop-color="#181818" offset="0%"></stop>
            <stop stop-color="#123BFF" offset="100%"></stop>
        </linearGradient>
        <rect id="path-2" x="0" y="80" width="96" height="16"></rect>
    </defs>
    <g id="headeroom-full-logo" stroke="none" stroke-width="1" fill="none" fill-rule="evenodd">
        <g id="headeroom-wordmark" transform="translate(148, 20)" fill="#181818">
            <path d="M469,21 C476.311712,21 482.072957,23.8710871 486.00063,29.0752859 L486,0 L502,0 L502,80 L486,80 L486,51 C486,40.473118 481.609257,34 474,34 C466.390743,34 462,40.473118 462,51 L462,80 L446,80 L446,51 C446,32.4231493 454.415592,21 469,21 Z M353,21 C367.584408,21 376,32.4231493 376,51 C375.833594,69.2490162 367.438564,81 353,81 C345.689217,81 339.928506,78.1296423 336.000867,72.9266975 L336,80 L320,80 L320,22 L336,22 L336.000867,29.0733025 C339.928506,23.8703577 345.689217,21 353,21 Z M348,34 C340.390743,34 336,40.473118 336,51 C336.112369,61.2858414 340.489565,68 348,68 C355.609257,68 360,61.526882 360,51 C360,40.473118 355.609257,34 348,34 Z M272,0 L272.000867,29.0733025 C275.928506,23.8703577 281.689217,21 289,21 C303.584408,21 312,32.4231493 312,51 C311.833594,69.2490162 303.438564,81 289,81 C281.689217,81 275.928506,78.1296423 272.000867,72.9266975 L272,80 L256,80 L256,0 L272,0 Z M284,34 C276.390743,34 272,40.473118 272,51 C272.112369,61.2858414 276.489565,68 284,68 C291.609257,68 296,61.526882 296,51 C296,40.473118 291.609257,34 284,34 Z M48,47 L48,80 L32,80 L32,47 L48,47 Z M16,47 L16,80 L0,80 L0,47 L16,47 Z M51,21 C56.4220831,21 60.8120447,23.0051235 64.0007083,26.6780997 L64,22 L80,22 L80,80 L64,80 L64,47 C64,38.9500314 61.0728377,34 56,34 C50.9271623,34 48,38.9500314 48,47 L32,47 C31.9072984,39.1787282 28.9910177,34 24,34 C18.9271623,34 16,38.9500314 16,47 L3.63797881e-12,47 C3.63797881e-12,30.9000627 6.95201046,21 19,21 C26.39851,21 31.8753137,24.733338 35.0006034,31.3431481 C38.1246863,24.733338 43.60149,21 51,21 Z M213,21 C211.96875,21 210.968343,21.0571131 209.999573,21.16983 L210,35.1121752 C212.192155,34.3707251 214.858821,34 218,34 C225.609257,34 230,40.473118 230,51 L230,29.0742942 C226.072226,23.8707224 220.311248,21 213,21 Z M246,22 L230,22 L230,80 L246,80 L246,22 Z M422.444791,57.0005183 C421.042054,63.9316883 417.032434,68 411,68 C406.276611,68 402.921237,66.2421305 400.783204,63.0523898 L384.276403,64.6000234 C388.27741,74.9902738 397.521217,81 411,81 C428.754932,81 439,69.5768507 439,51 C439,32.4231493 428.754932,21 411,21 C393.245068,21 383,32.4231493 383,51 C383,53.0932844 383.130085,55.0957359 383.386341,57.001246 L422.444791,57.0005183 Z M411,34 C417.032722,34 421.042437,38.0687003 422.444992,45.0004748 L399.555008,45.0004748 C400.957563,38.0687003 404.967278,34 411,34 Z M179,21 C161.245068,21 151,32.4231493 151,51 C151,69.5768507 161.245068,81 179,81 C196.754932,81 207,69.5768507 207,51 C207,32.4231493 196.754932,21 179,21 Z M179,34 C186.609257,34 191,40.473118 191,51 C191,61.526882 186.609257,68 179,68 C171.390743,68 167,61.526882 167,51 C167,40.473118 171.390743,34 179,34 Z M116,21 C98.245068,21 88,32.4231493 88,51 C88,69.5768507 98.245068,81 116,81 C133.754932,81 144,69.5768507 144,51 C144,32.4231493 133.754932,21 116,21 Z M116,34 C123.609257,34 128,40.473118 128,51 C128,61.526882 123.609257,68 116,68 C108.390743,68 104,61.526882 104,51 C104,40.473118 108.390743,34 116,34 Z" id="Shape" transform="translate(251, 40.5) scale(-1, 1) translate(-251, -40.5)"></path>
        </g>
        <g id="headeroom-symbol" transform="translate(20, 20)">
            <rect id="headroom-space" fill="#181818" opacity="0.1" x="0" y="0" width="96" height="80"></rect>
            <g id="headroom-base">
                <use fill="url(#linearGradient-1)" xlink:href="#path-2"></use>
                <use fill="#123BFF" xlink:href="#path-2"></use>
            </g>
        </g>
    </g>
</svg>