<?xml version="1.0" encoding="UTF-8"?>
<svg width="82px" height="61px" viewBox="0 0 82 61" version="1.1" xmlns="http://www.w3.org/2000/svg" xmlns:xlink="http://www.w3.org/1999/xlink">
    <title>icon-call</title>
    <g id="Page-1" stroke="none" stroke-width="1" fill="none" fill-rule="evenodd">
        <g id="Artboard" transform="translate(-661, -411)">
            <g id="icon-call" transform="translate(662, 412)">
                <path d="M74,4.5 C75.7949254,4.5 77.4199254,5.22753728 78.5961941,6.40380592 C79.7724627,7.58007456 80.5,9.20507456 80.5,11 L80.5,52.3333333 C80.5,54.1282588 79.7724627,55.7532588 78.5961941,56.9295274 C77.4199254,58.1057961 75.7949254,58.8333333 74,58.8333333 L6,58.8333333 C4.20507456,58.8333333 2.58007456,58.1057961 1.40380592,56.9295274 C0.227537282,55.7532588 -0.5,54.1282588 -0.5,52.3333333 L-0.5,11 C-0.5,9.20507456 0.227537282,7.58007456 1.40380592,6.40380592 C2.58007456,5.22753728 4.20507456,4.5 6,4.5 Z" id="Rectangle" stroke="#181818" fill-opacity="0.05" fill="#181818"></path>
                <circle id="Oval" stroke="#181818" fill="#FFFFFF" stroke-linejoin="round" cx="20" cy="26.6666667" r="10.8333333"></circle>
                <circle id="Oval" stroke="#181818" fill="#FFFFFF" stroke-linejoin="round" cx="60" cy="26.6666667" r="10.8333333"></circle>
                <path d="M36.6666667,58.3333333 C36.6666667,49.1285875 29.2047458,41.6666667 20,41.6666667 C10.7952542,41.6666667 3.33333333,49.1285875 3.33333333,58.3333333" id="Path" stroke="#181818" fill="#FFFFFF" stroke-linejoin="round"></path>
                <path d="M76.6666667,58.3333333 C76.6666667,49.1285875 69.2047458,41.6666667 60,41.6666667 C50.7952542,41.6666667 43.3333333,49.1285875 43.3333333,58.3333333" id="Path" stroke="#181818" fill="#FFFFFF" stroke-linejoin="round"></path>
                <line x1="40" y1="5" x2="40" y2="58.3333333" id="Path-11" stroke="#181818" fill-opacity="0.05" fill="#181818"></line>
                <g id="Group-3" transform="translate(25.8333, 0)">
                    <path d="M6,0 L20.6666667,0 C23.9803752,-8.8817842e-16 26.6666667,2.6862915 26.6666667,6 L26.6666667,13.1666667 C26.6666667,16.4803752 23.9803752,19.1666667 20.6666667,19.1666667 L6.44062989,19.1666667 L6.44062989,19.1666667 L0,23.3333333 L8.8817842e-16,6 C8.8817842e-16,2.6862915 2.6862915,0 6,0 Z" id="Rectangle" stroke="#181818" fill="#FFFFFF" stroke-linejoin="round"></path>
                    <circle id="Oval" fill="#181818" cx="6" cy="13.5" r="1"></circle>
                    <circle id="Oval" fill="#181818" cx="10.1666667" cy="13.5" r="1"></circle>
                    <circle id="Oval" fill="#181818" cx="14.3333333" cy="13.5" r="1"></circle>
                </g>
            </g>
        </g>
    </g>
</svg>