<?xml version="1.0" encoding="UTF-8"?>
<svg width="191px" height="447px" viewBox="0 0 191 447" version="1.1" xmlns="http://www.w3.org/2000/svg" xmlns:xlink="http://www.w3.org/1999/xlink">
    <title>Group</title>
    <g id="Page-1" stroke="none" stroke-width="1" fill="none" fill-rule="evenodd">
        <g id="Frame-2" transform="translate(-309, 0)" stroke="#123BFF">
            <g id="Group" transform="translate(309, 0)">
                <g stroke-width="2">
                    <line x1="144.730198" y1="4.5" x2="113.893356" y2="4.5" id="Path-7"></line>
                    <line x1="152.688093" y1="8.5" x2="108.919672" y2="8.5" id="Path-7"></line>
                    <line x1="155.672304" y1="12.5" x2="104.940725" y2="12.5" id="Path-7"></line>
                    <line x1="138.667041" y1="16.5" x2="84.9512511" y2="16.5" id="Path-7"></line>
                    <line x1="157.661777" y1="20.5" x2="106.930198" y2="20.5" id="Path-7"></line>
                    <line x1="157.661777" y1="24.5" x2="134.78283" y2="24.5" id="Path-7"></line>
                    <g id="lock" transform="translate(107.9249, 28)">
                        <line x1="49.7368421" y1="0.5" x2="26.8578947" y2="0.5" id="Path-7"></line>
                        <line x1="6.96315789" y1="0.5" x2="0" y2="0.5" id="Path-7"></line>
                        <line x1="4.97368421" y1="3.5" x2="0.994736842" y2="3.5" id="Path-7"></line>
                        <line x1="20.8894737" y1="3.5" x2="14.9210526" y2="3.5" id="Path-7"></line>
                        <line x1="24.8684211" y1="0.5" x2="11.9368421" y2="0.5" id="Path-7"></line>
                        <line x1="32.8263158" y1="4.5" x2="26.8578947" y2="4.5" id="Path-7"></line>
                        <line x1="11.9368421" y1="28.5" x2="6.96315789" y2="28.5" id="Path-7"></line>
                        <line x1="9.94736842" y1="14.5" x2="2.98421053" y2="14.5" id="Path-7"></line>
                        <line x1="14.9210526" y1="18.5" x2="2.98421053" y2="18.5" id="Path-7"></line>
                        <line x1="9.93684211" y1="20.5" x2="3.96842105" y2="20.5" id="Path-7"></line>
                        <line x1="36.8052632" y1="32.5" x2="21.8842105" y2="32.5" id="Path-7"></line>
                        <line x1="11.9368421" y1="36.5" x2="8.95263158" y2="36.5" id="Path-7"></line>
                        <line x1="33.8210526" y1="2.5" x2="26.8578947" y2="2.5" id="Path-7"></line>
                        <line x1="30.8368421" y1="6.5" x2="26.8578947" y2="6.5" id="Path-7"></line>
                    </g>
                    <line x1="157.661777" y1="32.5" x2="147.714409" y2="32.5" id="Path-7"></line>
                    <line x1="156.667041" y1="36.5" x2="146.719672" y2="36.5" id="Path-7"></line>
                    <line x1="155.672304" y1="40.5" x2="143.735462" y2="40.5" id="Path-7"></line>
                    <line x1="151.693356" y1="44.5" x2="143.735462" y2="44.5" id="Path-7"></line>
                    <line x1="150.698619" y1="48.5" x2="143.735462" y2="48.5" id="Path-7"></line>
                    <line x1="148.709146" y1="52.5" x2="145.724935" y2="52.5" id="Path-7"></line>
                    <line x1="145.724935" y1="56.5" x2="139.756514" y2="56.5" id="Path-7"></line>
                    <line x1="144.730198" y1="64.5" x2="136.772304" y2="64.5" id="Path-7"></line>
                    <line x1="85.0459879" y1="94.5" x2="83.0565142" y2="94.5" id="Path-7"></line>
                    <line x1="87.0354616" y1="106.5" x2="81.0670406" y2="106.5" id="Path-7"></line>
                    <line x1="91.014409" y1="110.5" x2="84.0512511" y2="110.5" id="Path-7"></line>
                    <line x1="97.9775669" y1="114.5" x2="92.0091458" y2="114.5" id="Path-7"></line>
                    <line x1="87.0354616" y1="98.5" x2="81.0670406" y2="98.5" id="Path-7"></line>
                    <line x1="87.0354616" y1="102.5" x2="79.0775669" y2="102.5" id="Path-7"></line>
                    <line x1="144.730198" y1="68.5" x2="132.793356" y2="68.5" id="Path-7"></line>
                    <line x1="150.698619" y1="72.5" x2="142.740725" y2="72.5" id="Path-7"></line>
                    <line x1="97.9244495" y1="72.5" x2="49.4402389" y2="72.5" id="Path-7"></line>
                    <line x1="106.930198" y1="76.5" x2="81.0670406" y2="76.5" id="Path-7"></line>
                    <line x1="159.651251" y1="76.5" x2="141.745988" y2="76.5" id="Path-7"></line>
                    <line x1="112.898619" y1="80.5" x2="76.0933563" y2="80.5" id="Path-7"></line>
                    <line x1="167.609146" y1="80.5" x2="134.78283" y2="80.5" id="Path-7"></line>
                    <line x1="171.588093" y1="84.5" x2="71.1196721" y2="84.5" id="Path-7"></line>
                    <line x1="157.577567" y1="88.5" x2="67.1407248" y2="88.5" id="Path-7"></line>
                    <line x1="177.556514" y1="92.5" x2="64.1565142" y2="92.5" id="Path-7"></line>
                    <line x1="179.545988" y1="96.5" x2="62.1670406" y2="96.5" id="Path-7"></line>
                    <line x1="181.535462" y1="100.5" x2="59.18283" y2="100.5" id="Path-7"></line>
                    <line x1="182.530198" y1="104.5" x2="2.57756687" y2="104.5" id="Path-7"></line>
                    <line x1="66.1459879" y1="108.5" x2="55.2038827" y2="108.5" id="Path-7"></line>
                    <line x1="190.530198" y1="108.5" x2="79.0775669" y2="108.5" id="Path-7"></line>
                    <line x1="181.535462" y1="112.5" x2="87.53283" y2="112.5" id="Path-7"></line>
                    <line x1="65.1512511" y1="116.5" x2="51.2249353" y2="116.5" id="Path-7"></line>
                    <line x1="68.1354616" y1="122.5" x2="61.1723037" y2="122.5" id="Path-7"></line>
                    <line x1="115.88283" y1="116.5" x2="94.9933563" y2="116.5" id="Path-7"></line>
                    <line x1="179.545988" y1="116.5" x2="141.745988" y2="116.5" id="Path-7"></line>
                    <line x1="172.58283" y1="120.5" x2="165.619672" y2="120.5" id="Path-7"></line>
                    <line x1="175.567041" y1="128.5" x2="172.58283" y2="128.5" id="Path-7"></line>
                    <line x1="177.556514" y1="120.5" x2="172.58283" y2="120.5" id="Path-7"></line>
                    <line x1="171.588093" y1="136.5" x2="167.609146" y2="136.5" id="Path-7"></line>
                    <line x1="169.598619" y1="144.5" x2="160.645988" y2="144.5" id="Path-7"></line>
                    <line x1="164.624935" y1="152.5" x2="150.698619" y2="152.5" id="Path-7"></line>
                    <line x1="70.1249353" y1="124.5" x2="47.2459879" y2="124.5" id="Path-7"></line>
                    <line x1="175.567041" y1="124.5" x2="75.0986195" y2="124.5" id="Path-7"></line>
                    <line x1="115.88283" y1="132.5" x2="45.2565142" y2="132.5" id="Path-7"></line>
                    <line x1="174.572304" y1="132.5" x2="130.803883" y2="132.5" id="Path-7"></line>
                    <line x1="169.598619" y1="140.5" x2="46.2512511" y2="140.5" id="Path-7"></line>
                    <line x1="166.614409" y1="148.5" x2="57.1933563" y2="148.5" id="Path-7"></line>
                    <line x1="125.830198" y1="152.5" x2="77.0880932" y2="152.5" id="Path-7"></line>
                    <line x1="100.961777" y1="144.5" x2="67.1407248" y2="144.5" id="Path-7"></line>
                    <line x1="129.809146" y1="136.5" x2="98.9723037" y2="136.5" id="Path-7"></line>
                    <line x1="137.767041" y1="122.5" x2="128.814409" y2="122.5" id="Path-7"></line>
                    <line x1="169.598619" y1="142.5" x2="163.630198" y2="142.5" id="Path-7"></line>
                    <line x1="165.619672" y1="150.5" x2="159.651251" y2="150.5" id="Path-7"></line>
                    <line x1="159.651251" y1="158.5" x2="146.719672" y2="158.5" id="Path-7"></line>
                    <line x1="158.656514" y1="166.5" x2="140.751251" y2="166.5" id="Path-7"></line>
                    <line x1="156.667041" y1="174.5" x2="130.803883" y2="174.5" id="Path-7"></line>
                    <line x1="117.872304" y1="128.5" x2="108.919672" y2="128.5" id="Path-7"></line>
                    <line x1="110.909146" y1="134.5" x2="101.956514" y2="134.5" id="Path-7"></line>
                    <line x1="101.956514" y1="138.5" x2="93.0038827" y2="138.5" id="Path-7"></line>
                    <line x1="90.0196721" y1="142.5" x2="85.0459879" y2="142.5" id="Path-7"></line>
                    <line x1="141.745988" y1="118.5" x2="136.772304" y2="118.5" id="Path-7"></line>
                    <line x1="162.635462" y1="156.5" x2="78.08283" y2="156.5" id="Path-7"></line>
                    <line x1="160.645988" y1="160.5" x2="79.0775669" y2="160.5" id="Path-7"></line>
                    <line x1="159.651251" y1="164.5" x2="81.0670406" y2="164.5" id="Path-7"></line>
                    <line x1="157.661777" y1="168.5" x2="82.0617774" y2="168.5" id="Path-7"></line>
                    <line x1="157.661777" y1="172.5" x2="82.0617774" y2="172.5" id="Path-7"></line>
                    <line x1="155.672304" y1="176.5" x2="82.0617774" y2="176.5" id="Path-7"></line>
                    <line x1="154.677567" y1="180.5" x2="83.0565142" y2="180.5" id="Path-7"></line>
                    <line x1="154.677567" y1="182.5" x2="87.0354616" y2="182.5" id="Path-7"></line>
                    <line x1="154.677567" y1="178.5" x2="143.735462" y2="178.5" id="Path-7"></line>
                    <line x1="153.68283" y1="186.5" x2="92.0091458" y2="186.5" id="Path-7"></line>
                    <line x1="153.68283" y1="190.5" x2="80.0723037" y2="190.5" id="Path-7"></line>
                    <line x1="153.68283" y1="194.5" x2="82.0617774" y2="194.5" id="Path-7"></line>
                    <line x1="154.677567" y1="198.5" x2="76.0933563" y2="198.5" id="Path-7"></line>
                    <line x1="154.677567" y1="202.5" x2="81.0670406" y2="202.5" id="Path-7"></line>
                    <line x1="154.677567" y1="206.5" x2="68.1354616" y2="206.5" id="Path-7"></line>
                    <line x1="153.68283" y1="210.5" x2="80.0723037" y2="210.5" id="Path-7"></line>
                    <line x1="152.688093" y1="214.5" x2="60.1775669" y2="214.5" id="Path-7"></line>
                    <line x1="151.693356" y1="218.5" x2="71.1196721" y2="218.5" id="Path-7"></line>
                    <line x1="149.703883" y1="222.5" x2="59.18283" y2="222.5" id="Path-7"></line>
                    <line x1="147.714409" y1="226.5" x2="69.1301984" y2="226.5" id="Path-7"></line>
                    <line x1="145.724935" y1="230.5" x2="52.2196721" y2="230.5" id="Path-7"></line>
                    <line x1="143.735462" y1="234.5" x2="59.18283" y2="234.5" id="Path-7"></line>
                    <line x1="142.740725" y1="238.5" x2="44.2617774" y2="238.5" id="Path-7"></line>
                    <line x1="92.0091458" y1="242.5" x2="51.2249353" y2="242.5" id="Path-7"></line>
                    <line x1="85.0459879" y1="250.5" x2="44.2617774" y2="250.5" id="Path-7"></line>
                    <line x1="82.0617774" y1="254.5" x2="57.1933563" y2="254.5" id="Path-7"></line>
                    <line x1="140.751251" y1="242.5" x2="102.951251" y2="242.5" id="Path-7"></line>
                    <line x1="140.751251" y1="246.5" x2="96.98283" y2="246.5" id="Path-7"></line>
                    <line x1="138.761777" y1="250.5" x2="109.914409" y2="250.5" id="Path-7"></line>
                    <line x1="137.767041" y1="254.5" x2="96.98283" y2="254.5" id="Path-7"></line>
                    <line x1="135.777567" y1="258.5" x2="103.945988" y2="258.5" id="Path-7"></line>
                    <line x1="134.78283" y1="262.5" x2="93.9986195" y2="262.5" id="Path-7"></line>
                    <line x1="132.793356" y1="266.5" x2="100.961777" y2="266.5" id="Path-7"></line>
                    <line x1="128.814409" y1="274.5" x2="106.930198" y2="274.5" id="Path-7"></line>
                    <line x1="130.803883" y1="270.5" x2="93.0038827" y2="270.5" id="Path-7"></line>
                    <line x1="89.0249353" y1="246.5" x2="38.2933563" y2="246.5" id="Path-7"></line>
                    <line x1="170.677567" y1="184.5" x2="81.0670406" y2="184.5" id="Path-7"></line>
                    <line x1="153.68283" y1="188.5" x2="76.0933563" y2="188.5" id="Path-7"></line>
                    <line x1="153.68283" y1="192.5" x2="73.1091458" y2="192.5" id="Path-7"></line>
                    <line x1="154.677567" y1="196.5" x2="71.1196721" y2="196.5" id="Path-7"></line>
                    <line x1="154.677567" y1="200.5" x2="67.1407248" y2="200.5" id="Path-7"></line>
                    <line x1="117.677567" y1="204.5" x2="53.5775669" y2="204.5" id="Path-7"></line>
                    <line x1="154.677567" y1="208.5" x2="59.18283" y2="208.5" id="Path-7"></line>
                    <line x1="153.68283" y1="212.5" x2="55.2038827" y2="212.5" id="Path-7"></line>
                    <line x1="151.693356" y1="216.5" x2="53.214409" y2="216.5" id="Path-7"></line>
                    <line x1="150.698619" y1="220.5" x2="51.2249353" y2="220.5" id="Path-7"></line>
                    <line x1="148.709146" y1="224.5" x2="49.2354616" y2="224.5" id="Path-7"></line>
                    <line x1="146.719672" y1="228.5" x2="44.2617774" y2="228.5" id="Path-7"></line>
                    <line x1="144.730198" y1="232.5" x2="42.2723037" y2="232.5" id="Path-7"></line>
                    <line x1="140.751251" y1="244.5" x2="93.9986195" y2="244.5" id="Path-7"></line>
                    <line x1="139.756514" y1="248.5" x2="93.0038827" y2="248.5" id="Path-7"></line>
                    <line x1="137.767041" y1="252.5" x2="92.0091458" y2="252.5" id="Path-7"></line>
                    <line x1="136.772304" y1="256.5" x2="91.014409" y2="256.5" id="Path-7"></line>
                    <line x1="134.78283" y1="260.5" x2="90.0196721" y2="260.5" id="Path-7"></line>
                    <line x1="133.788093" y1="264.5" x2="89.0249353" y2="264.5" id="Path-7"></line>
                    <line x1="131.798619" y1="268.5" x2="88.0301984" y2="268.5" id="Path-7"></line>
                    <line x1="129.809146" y1="272.5" x2="88.0301984" y2="272.5" id="Path-7"></line>
                    <line x1="128.814409" y1="276.5" x2="87.0354616" y2="276.5" id="Path-7"></line>
                    <line x1="127.819672" y1="280.5" x2="108.919672" y2="280.5" id="Path-7"></line>
                    <line x1="126.824935" y1="284.5" x2="85.0459879" y2="284.5" id="Path-7"></line>
                    <line x1="125.830198" y1="288.5" x2="102.951251" y2="288.5" id="Path-7"></line>
                    <line x1="125.835462" y1="292.5" x2="92.0565142" y2="292.5" id="Path-7"></line>
                    <line x1="123.840725" y1="296.5" x2="100.961777" y2="296.5" id="Path-7"></line>
                    <line x1="120.856514" y1="300.5" x2="82.0617774" y2="300.5" id="Path-7"></line>
                    <line x1="120.856514" y1="304.5" x2="100.961777" y2="304.5" id="Path-7"></line>
                    <line x1="117.872304" y1="312.5" x2="97.9775669" y2="312.5" id="Path-7"></line>
                    <line x1="114.888093" y1="320.5" x2="94.9933563" y2="320.5" id="Path-7"></line>
                    <line x1="112.898619" y1="328.5" x2="93.0038827" y2="328.5" id="Path-7"></line>
                    <line x1="108.919672" y1="336.5" x2="89.0249353" y2="336.5" id="Path-7"></line>
                    <line x1="142.740725" y1="236.5" x2="39.2880932" y2="236.5" id="Path-7"></line>
                    <line x1="141.745988" y1="240.5" x2="35.3091458" y2="240.5" id="Path-7"></line>
                    <line x1="90.0196721" y1="244.5" x2="31.3301984" y2="244.5" id="Path-7"></line>
                    <line x1="87.0354616" y1="248.5" x2="29.3407248" y2="248.5" id="Path-7"></line>
                    <line x1="82.0617774" y1="252.5" x2="40.28283" y2="252.5" id="Path-7"></line>
                    <line x1="78.08283" y1="256.5" x2="24.3670406" y2="256.5" id="Path-7"></line>
                    <line x1="76.1038827" y1="260.5" x2="51.2249353" y2="260.5" id="Path-7"></line>
                    <line x1="71.5520734" y1="264.5" x2="6.39335634" y2="264.5" id="Path-7"></line>
                    <line x1="66.1670406" y1="268.5" x2="41.2775669" y2="268.5" id="Path-7"></line>
                    <line x1="60.5775669" y1="272.5" x2="17.4038827" y2="272.5" id="Path-7"></line>
                    <line x1="63.4874353" y1="276.5" x2="37.2986195" y2="276.5" id="Path-7"></line>
                    <line x1="65.1723037" y1="280.5" x2="17.4038827" y2="280.5" id="Path-7"></line>
                    <line x1="66.1407248" y1="284.5" x2="43.2670406" y2="284.5" id="Path-7"></line>
                    <line x1="69.1249353" y1="288.5" x2="22.3775669" y2="288.5" id="Path-7"></line>
                    <line x1="72.1196721" y1="292.5" x2="42.2723037" y2="292.5" id="Path-7"></line>
                    <line x1="73.114409" y1="296.5" x2="29.3407248" y2="296.5" id="Path-7"></line>
                    <line x1="76.0933563" y1="300.5" x2="44.2617774" y2="300.5" id="Path-7"></line>
                    <line x1="78.08283" y1="304.5" x2="39.2880932" y2="304.5" id="Path-7"></line>
                    <line x1="118.867041" y1="308.5" x2="51.2249353" y2="308.5" id="Path-7"></line>
                    <line x1="80.0723037" y1="312.5" x2="47.2459879" y2="312.5" id="Path-7"></line>
                    <line x1="116.877567" y1="316.5" x2="55.2038827" y2="316.5" id="Path-7"></line>
                    <line x1="78.08283" y1="320.5" x2="55.2038827" y2="320.5" id="Path-7"></line>
                    <line x1="113.893356" y1="324.5" x2="59.18283" y2="324.5" id="Path-7"></line>
                    <line x1="77.0880932" y1="328.5" x2="65.1512511" y2="328.5" id="Path-7"></line>
                    <line x1="110.909146" y1="332.5" x2="71.1196721" y2="332.5" id="Path-7"></line>
                    <line x1="77.0880932" y1="336.5" x2="73.1091458" y2="336.5" id="Path-7"></line>
                    <line x1="114.888093" y1="340.5" x2="75.0986195" y2="340.5" id="Path-7"></line>
                    <line x1="147.840725" y1="344.5" x2="93.9986195" y2="344.5" id="Path-7"></line>
                    <line x1="126.872304" y1="346.5" x2="111.577567" y2="346.5" id="Path-7"></line>
                    <line x1="131.872304" y1="350.5" x2="111.577567" y2="350.5" id="Path-7"></line>
                    <line x1="131.872304" y1="354.5" x2="106.577567" y2="354.5" id="Path-7"></line>
                    <line x1="130.872304" y1="358.5" x2="103.577567" y2="358.5" id="Path-7"></line>
                    <line x1="128.872304" y1="362.5" x2="103.577567" y2="362.5" id="Path-7"></line>
                    <line x1="127.872304" y1="366.5" x2="101.577567" y2="366.5" id="Path-7"></line>
                    <line x1="124.872304" y1="370.5" x2="100.577567" y2="370.5" id="Path-7"></line>
                    <line x1="123.872304" y1="374.5" x2="101.577567" y2="374.5" id="Path-7"></line>
                    <line x1="129.788093" y1="348.5" x2="74.1038827" y2="348.5" id="Path-7"></line>
                    <line x1="132.793356" y1="352.5" x2="96.0301984" y2="352.5" id="Path-7"></line>
                    <line x1="130.803883" y1="356.5" x2="72.114409" y2="356.5" id="Path-7"></line>
                    <line x1="129.809146" y1="360.5" x2="84.0512511" y2="360.5" id="Path-7"></line>
                    <line x1="127.819672" y1="364.5" x2="71.1196721" y2="364.5" id="Path-7"></line>
                    <line x1="126.824935" y1="368.5" x2="81.0670406" y2="368.5" id="Path-7"></line>
                    <line x1="124.835462" y1="372.5" x2="69.1301984" y2="372.5" id="Path-7"></line>
                    <line x1="96.98283" y1="376.5" x2="82.0617774" y2="376.5" id="Path-7"></line>
                    <line x1="94.9933563" y1="380.5" x2="68.1354616" y2="380.5" id="Path-7"></line>
                    <line x1="94.9933563" y1="384.5" x2="76.0933563" y2="384.5" id="Path-7"></line>
                    <line x1="93.0038827" y1="388.5" x2="67.1407248" y2="388.5" id="Path-7"></line>
                    <line x1="92.0091458" y1="392.5" x2="75.0986195" y2="392.5" id="Path-7"></line>
                    <line x1="90.0196721" y1="396.5" x2="66.1459879" y2="396.5" id="Path-7"></line>
                    <line x1="87.0354616" y1="400.5" x2="73.1091458" y2="400.5" id="Path-7"></line>
                    <line x1="85.0459879" y1="404.5" x2="64.1565142" y2="404.5" id="Path-7"></line>
                    <line x1="82.0617774" y1="408.5" x2="71.1196721" y2="408.5" id="Path-7"></line>
                    <line x1="82.0617774" y1="412.5" x2="62.1670406" y2="412.5" id="Path-7"></line>
                    <line x1="80.0723037" y1="416.5" x2="67.1407248" y2="416.5" id="Path-7"></line>
                    <line x1="79.0775669" y1="420.5" x2="59.18283" y2="420.5" id="Path-7"></line>
                    <line x1="79.0775669" y1="422.5" x2="58.18283" y2="422.5" id="Path-7"></line>
                    <line x1="79.0775669" y1="426.5" x2="49.18283" y2="426.5" id="Path-7"></line>
                    <line x1="82.0775669" y1="430.5" x2="38.18283" y2="430.5" id="Path-7"></line>
                    <line x1="83.0775669" y1="434.5" x2="32.18283" y2="434.5" id="Path-7"></line>
                    <line x1="83.0775669" y1="438.5" x2="26.18283" y2="438.5" id="Path-7"></line>
                    <line x1="84.0775669" y1="442.5" x2="22.5775669" y2="442.5" id="Path-7"></line>
                    <line x1="79.0775669" y1="424.5" x2="54.2091458" y2="424.5" id="Path-7"></line>
                    <line x1="80.0723037" y1="428.5" x2="42.2723037" y2="428.5" id="Path-7"></line>
                    <line x1="83.0565142" y1="432.5" x2="34.314409" y2="432.5" id="Path-7"></line>
                    <line x1="83.0565142" y1="436.5" x2="28.3459879" y2="436.5" id="Path-7"></line>
                    <line x1="94.0775669" y1="440.5" x2="8.40388266" y2="440.5" id="Path-7"></line>
                    <line x1="163.231234" y1="446.5" x2="0" y2="446.5" id="Path-7"></line>
                    <line x1="115.872304" y1="388.5" x2="103.951251" y2="388.5" id="Path-7"></line>
                    <line x1="112.888093" y1="392.5" x2="103.940725" y2="392.5" id="Path-7"></line>
                    <line x1="118.523432" y1="384.5" x2="103.666289" y2="384.5" id="Path-7"></line>
                    <line x1="120.856514" y1="380.5" x2="102.577567" y2="380.5" id="Path-7"></line>
                    <line x1="121.856514" y1="378.5" x2="101.577567" y2="378.5" id="Path-7"></line>
                    <line x1="119.856514" y1="382.5" x2="103.577567" y2="382.5" id="Path-7"></line>
                    <line x1="116.856514" y1="386.5" x2="103.961777" y2="386.5" id="Path-7"></line>
                    <line x1="113.856514" y1="390.5" x2="103.961777" y2="390.5" id="Path-7"></line>
                    <line x1="109.856514" y1="394.5" x2="103.961777" y2="394.5" id="Path-7"></line>
                    <line x1="122.845988" y1="376.5" x2="101.577567" y2="376.5" id="Path-7"></line>
                    <line x1="130.803883" y1="0.5" x2="115.88283" y2="0.5" id="Path-7"></line>
                    <line x1="147.714409" y1="6.5" x2="113.893356" y2="6.5" id="Path-7"></line>
                    <line x1="153.68283" y1="10.5" x2="117.872304" y2="10.5" id="Path-7"></line>
                    <line x1="156.667041" y1="14.5" x2="110.909146" y2="14.5" id="Path-7"></line>
                    <line x1="157.661777" y1="18.5" x2="125.830198" y2="18.5" id="Path-7"></line>
                    <line x1="157.661777" y1="22.5" x2="134.78283" y2="22.5" id="Path-7"></line>
                    <line x1="165.661777" y1="26.5" x2="134.78283" y2="26.5" id="Path-7"></line>
                    <line x1="157.661777" y1="30.5" x2="146.719672" y2="30.5" id="Path-7"></line>
                    <line x1="157.661777" y1="34.5" x2="146.719672" y2="34.5" id="Path-7"></line>
                    <line x1="156.667041" y1="38.5" x2="144.730198" y2="38.5" id="Path-7"></line>
                    <line x1="153.68283" y1="42.5" x2="142.740725" y2="42.5" id="Path-7"></line>
                    <line x1="150.698619" y1="46.5" x2="143.735462" y2="46.5" id="Path-7"></line>
                    <line x1="149.703883" y1="50.5" x2="144.730198" y2="50.5" id="Path-7"></line>
                </g>
                <line x1="153.68283" y1="38.5001" x2="160.630198" y2="38.5001" id="Path" stroke-width="2"></line>
                <line x1="153.68283" y1="30.5001" x2="158.630198" y2="30.5001" id="Path" stroke-width="2"></line>
                <line x1="150.68283" y1="46.5001" x2="162.630198" y2="46.5001" id="Path" stroke-width="2"></line>
                <line x1="148.68283" y1="54.5001" x2="162.630198" y2="54.5001" id="Path" stroke-width="2"></line>
                <line x1="145.68283" y1="62.5001" x2="159.630198" y2="62.5001" id="Path" stroke-width="2"></line>
                <line x1="174.68283" y1="118.5001" x2="180.630198" y2="118.5001" id="Path" stroke-width="2"></line>
                <line x1="178.68283" y1="114.5001" x2="184.630198" y2="114.5001" id="Path" stroke-width="2"></line>
                <line x1="172.68283" y1="126.5001" x2="181.630198" y2="126.5001" id="Path" stroke-width="2"></line>
                <line x1="171.68283" y1="134.5001" x2="180.630198" y2="134.5001" id="Path" stroke-width="2"></line>
                <line x1="168.68283" y1="142.5001" x2="180.630198" y2="142.5001" id="Path" stroke-width="2"></line>
                <line x1="161.68283" y1="150.5001" x2="180.630198" y2="150.5001" id="Path" stroke-width="2"></line>
                <line x1="158.68283" y1="158.5001" x2="178.630198" y2="158.5001" id="Path" stroke-width="2"></line>
                <line x1="153.68283" y1="166.5001" x2="173.630198" y2="166.5001" id="Path" stroke-width="2"></line>
                <line x1="152.68283" y1="174.5001" x2="164.630198" y2="174.5001" id="Path" stroke-width="2"></line>
                <line x1="148.68283" y1="182.5001" x2="160.630198" y2="182.5001" id="Path" stroke-width="2"></line>
                <line x1="145.68283" y1="186.5001" x2="157.630198" y2="186.5001" id="Path" stroke-width="2"></line>
                <line x1="146.68283" y1="193.5001" x2="158.630198" y2="193.5001" id="Path" stroke-width="2"></line>
                <line x1="146.68283" y1="201.5001" x2="157.630198" y2="201.5001" id="Path" stroke-width="2"></line>
                <line x1="146.68283" y1="206.5001" x2="157.630198" y2="206.5001" id="Path" stroke-width="2"></line>
                <line x1="145.68283" y1="214.5001" x2="158.630198" y2="214.5001" id="Path" stroke-width="2"></line>
                <line x1="146.68283" y1="222.5001" x2="160.630198" y2="222.5001" id="Path" stroke-width="2"></line>
                <line x1="132.68283" y1="230.5001" x2="163.566289" y2="230.5" id="Path" stroke-width="2"></line>
                <line x1="132.68283" y1="238.5001" x2="163.566289" y2="238.5" id="Path" stroke-width="2"></line>
                <line x1="68.5968085" y1="246.5" x2="162.575303" y2="246.5" id="Path" stroke-width="2"></line>
                <line x1="84.68283" y1="250.5001" x2="91.5775669" y2="250.5" id="Path" stroke-width="2"></line>
                <line x1="81.68283" y1="254.5001" x2="91.5324541" y2="254.5" id="Path" stroke-width="2"></line>
                <line x1="78.5775669" y1="262.5" x2="89.1865894" y2="262.5" id="Path" stroke-width="2"></line>
                <line x1="74.5775669" y1="270.5" x2="88.2617774" y2="270.5" id="Path" stroke-width="2"></line>
                <line x1="69.5775669" y1="278.5" x2="87.242073" y2="278.5" id="Path" stroke-width="2"></line>
                <line x1="66.5775669" y1="286.5" x2="84.375043" y2="286.5" id="Path" stroke-width="2"></line>
                <line x1="70.5775669" y1="294.5" x2="83.291226" y2="294.5" id="Path" stroke-width="2"></line>
                <line x1="75.5775669" y1="302.5" x2="82.4739746" y2="302.5" id="Path" stroke-width="2"></line>
                <line x1="77.5775669" y1="306.5" x2="82.5784023" y2="306.5" id="Path" stroke-width="2"></line>
                <line x1="132.68283" y1="254.5001" x2="161.573807" y2="254.5" id="Path" stroke-width="2"></line>
                <line x1="131.68283" y1="262.5001" x2="159.577567" y2="262.5" id="Path" stroke-width="2"></line>
                <line x1="129.68283" y1="270.5001" x2="157.577567" y2="270.5" id="Path" stroke-width="2"></line>
                <line x1="127.68283" y1="278.5001" x2="155.577567" y2="278.5" id="Path" stroke-width="2"></line>
                <line x1="125.68283" y1="286.5001" x2="154.573807" y2="286.5" id="Path" stroke-width="2"></line>
                <line x1="123.68283" y1="294.5001" x2="152.573807" y2="294.5" id="Path" stroke-width="2"></line>
                <line x1="121.68283" y1="302.5001" x2="150.573807" y2="302.5" id="Path" stroke-width="2"></line>
                <line x1="119.68283" y1="310.5001" x2="139.607642" y2="310.5" id="Path" stroke-width="2"></line>
                <line x1="117.68283" y1="318.5001" x2="145.577567" y2="318.5" id="Path" stroke-width="2"></line>
                <line x1="115.68283" y1="326.5001" x2="143.577567" y2="326.5" id="Path" stroke-width="2"></line>
                <line x1="113.68283" y1="334.5001" x2="141.577567" y2="334.5" id="Path" stroke-width="2"></line>
                <line x1="111.68283" y1="342.5001" x2="139.577567" y2="342.5" id="Path" stroke-width="2"></line>
                <line x1="110.68283" y1="346.5001" x2="138.577567" y2="346.5" id="Path" stroke-width="2"></line>
                <line x1="109.68283" y1="350.5001" x2="138.573807" y2="350.5" id="Path" stroke-width="2"></line>
                <line x1="107.68283" y1="358.5001" x2="137.570048" y2="358.5" id="Path" stroke-width="2"></line>
                <line x1="105.68283" y1="366.5001" x2="134.573807" y2="366.5" id="Path" stroke-width="2"></line>
                <line x1="103.68283" y1="374.5001" x2="131.577567" y2="374.5" id="Path" stroke-width="2"></line>
                <line x1="105.541777" y1="382.5" x2="128.581777" y2="382.5" id="Path" stroke-width="2"></line>
                <line x1="106.536897" y1="390.5" x2="126.582352" y2="390.5" id="Path" stroke-width="2"></line>
                <line x1="103.499764" y1="398.5" x2="123.58672" y2="398.5" id="Path" stroke-width="2"></line>
                <line x1="101.499764" y1="406.5" x2="121.58672" y2="406.5" id="Path" stroke-width="2"></line>
                <line x1="102.53283" y1="414.5" x2="120.58283" y2="414.5" id="Path" stroke-width="2"></line>
                <line x1="93.5775669" y1="422.5" x2="119.577567" y2="422.5" id="Path" stroke-width="2"></line>
                <line x1="79.6005088" y1="430.5" x2="118.574868" y2="430.5" id="Path" stroke-width="2"></line>
                <line x1="80.7018359" y1="438.5" x2="120.562947" y2="438.5" id="Path" stroke-width="2"></line>
                <line x1="147.68283" y1="70.5001" x2="154.630198" y2="70.5001" id="Path" stroke-width="2"></line>
            </g>
        </g>
    </g>
</svg>