<?xml version="1.0" encoding="UTF-8"?>
<svg width="316px" height="466px" viewBox="0 0 316 466" version="1.1" xmlns="http://www.w3.org/2000/svg" xmlns:xlink="http://www.w3.org/1999/xlink">
    <title>Group</title>
    <g id="Page-1" stroke="none" stroke-width="1" fill="none" fill-rule="evenodd">
        <g id="Frame" transform="translate(-542, -1726)" stroke="#123BFF">
            <g id="Group" transform="translate(542, 1726)">
                <line x1="168" y1="6" x2="144" y2="6" id="Path-7" stroke-width="2"></line>
                <line x1="165" y1="2" x2="151" y2="2" id="Path-7" stroke-width="2"></line>
                <line x1="170" y1="8" x2="150" y2="8" id="Path-7" stroke-width="2"></line>
                <line x1="174" y1="12" x2="145" y2="12" id="Path-7" stroke-width="2"></line>
                <line x1="179" y1="16" x2="150" y2="16" id="Path-7" stroke-width="2"></line>
                <line x1="172" y1="10" x2="140" y2="10" id="Path-7" stroke-width="2"></line>
                <line x1="176" y1="14" x2="136" y2="14" id="Path-7" stroke-width="2"></line>
                <line x1="144" y1="18" x2="136" y2="18" id="Path-7" stroke-width="2"></line>
                <line x1="140" y1="22" x2="124" y2="22" id="Path-7" stroke-width="2"></line>
                <line x1="140" y1="26" x2="132" y2="26" id="Path-7" stroke-width="2"></line>
                <line x1="140" y1="30" x2="132" y2="30" id="Path-7" stroke-width="2"></line>
                <line x1="140" y1="34" x2="136" y2="34" id="Path-7" stroke-width="2"></line>
                <line x1="140" y1="38" x2="132" y2="38" id="Path-7" stroke-width="2"></line>
                <line x1="176" y1="34" x2="172" y2="34" id="Path-7" stroke-width="2"></line>
                <line x1="180" y1="38" x2="172" y2="38" id="Path-7" stroke-width="2"></line>
                <line x1="180" y1="42" x2="172" y2="42" id="Path-7" stroke-width="2"></line>
                <line x1="176" y1="46" x2="172" y2="46" id="Path-7" stroke-width="2"></line>
                <line x1="176" y1="50" x2="172" y2="50" id="Path-7" stroke-width="2"></line>
                <line x1="140" y1="50" x2="136" y2="50" id="Path-7" stroke-width="2"></line>
                <line x1="176" y1="54" x2="168" y2="54" id="Path-7" stroke-width="2"></line>
                <line x1="170" y1="60" x2="162" y2="60" id="Path-7" stroke-width="2"></line>
                <line x1="176" y1="62" x2="160" y2="62" id="Path-7" stroke-width="2"></line>
                <line x1="176" y1="70" x2="160" y2="70" id="Path-7" stroke-width="2"></line>
                <line x1="180" y1="78" x2="164" y2="78" id="Path-7" stroke-width="2"></line>
                <line x1="144" y1="78" x2="140" y2="78" id="Path-7" stroke-width="2"></line>
                <line x1="200" y1="83" x2="153" y2="83" id="Path-7" stroke-width="2"></line>
                <line x1="140" y1="83" x2="128" y2="83" id="Path-7" stroke-width="2"></line>
                <line x1="200" y1="102" x2="71" y2="102" id="Path-7" stroke-width="2"></line>
                <line x1="228" y1="110" x2="91" y2="110" id="Path-7" stroke-width="2"></line>
                <line x1="213" y1="132" x2="205" y2="132" id="Path-7" stroke-width="2"></line>
                <line x1="211" y1="136" x2="205" y2="136" id="Path-7" stroke-width="2"></line>
                <line x1="210" y1="140" x2="205" y2="140" id="Path-7" stroke-width="2"></line>
                <line x1="207" y1="144" x2="205" y2="144" id="Path-7" stroke-width="2"></line>
                <line x1="216" y1="124" x2="204" y2="124" id="Path-7" stroke-width="2"></line>
                <line x1="212" y1="120" x2="207" y2="120" id="Path-7" stroke-width="2"></line>
                <line x1="215" y1="128" x2="207" y2="128" id="Path-7" stroke-width="2"></line>
                <line x1="242" y1="130" x2="78" y2="130" id="Path-7" stroke-width="2"></line>
                <line x1="109" y1="124" x2="105" y2="124" id="Path-7" stroke-width="2"></line>
                <line x1="114" y1="132" x2="103" y2="132" id="Path-7" stroke-width="2"></line>
                <line x1="111" y1="136" x2="99" y2="136" id="Path-7" stroke-width="2"></line>
                <line x1="114" y1="128" x2="106" y2="128" id="Path-7" stroke-width="2"></line>
                <line x1="232" y1="118" x2="85" y2="118" id="Path-7" stroke-width="2"></line>
                <line x1="234" y1="122" x2="84" y2="122" id="Path-7" stroke-width="2"></line>
                <line x1="237" y1="126" x2="82" y2="126" id="Path-7" stroke-width="2"></line>
                <line x1="240" y1="134" x2="75" y2="134" id="Path-7" stroke-width="2"></line>
                <line x1="208" y1="142" x2="112" y2="142" id="Path-7" stroke-width="2"></line>
                <line x1="207" y1="146" x2="112" y2="146" id="Path-7" stroke-width="2"></line>
                <line x1="211" y1="138" x2="88" y2="138" id="Path-7" stroke-width="2"></line>
                <line x1="100" y1="142" x2="68" y2="142" id="Path-7" stroke-width="2"></line>
                <line x1="84" y1="158" x2="56" y2="158" id="Path-7" stroke-width="2"></line>
                <line x1="84" y1="174" x2="60" y2="174" id="Path-7" stroke-width="2"></line>
                <line x1="88" y1="190" x2="68" y2="190" id="Path-7" stroke-width="2"></line>
                <line x1="248" y1="142" x2="220" y2="142" id="Path-7" stroke-width="2"></line>
                <line x1="257" y1="162" x2="249" y2="162" id="Path-7" stroke-width="2"></line>
                <line x1="253" y1="170" x2="244" y2="170" id="Path-7" stroke-width="2"></line>
                <line x1="250" y1="178" x2="239" y2="178" id="Path-7" stroke-width="2"></line>
                <line x1="246" y1="186" x2="234" y2="186" id="Path-7" stroke-width="2"></line>
                <line x1="241" y1="194" x2="229" y2="194" id="Path-7" stroke-width="2"></line>
                <line x1="232" y1="202" x2="224" y2="202" id="Path-7" stroke-width="2"></line>
                <line x1="225" y1="210" x2="217" y2="210" id="Path-7" stroke-width="2"></line>
                <line x1="112" y1="218" x2="104" y2="218" id="Path-7" stroke-width="2"></line>
                <line x1="98" y1="202" x2="90" y2="202" id="Path-7" stroke-width="2"></line>
                <line x1="91" y1="194" x2="82" y2="194" id="Path-7" stroke-width="2"></line>
                <line x1="87" y1="186" x2="77" y2="186" id="Path-7" stroke-width="2"></line>
                <line x1="84" y1="178" x2="74" y2="178" id="Path-7" stroke-width="2"></line>
                <line x1="80" y1="170" x2="70" y2="170" id="Path-7" stroke-width="2"></line>
                <line x1="80" y1="162" x2="70" y2="162" id="Path-7" stroke-width="2"></line>
                <line x1="87" y1="154" x2="76" y2="154" id="Path-7" stroke-width="2"></line>
                <line x1="96" y1="146" x2="83" y2="146" id="Path-7" stroke-width="2"></line>
                <line x1="205" y1="150" x2="114" y2="150" id="Path-7" stroke-width="2"></line>
                <line x1="204" y1="154" x2="115" y2="154" id="Path-7" stroke-width="2"></line>
                <line x1="252" y1="150" x2="226" y2="150" id="Path-7" stroke-width="2"></line>
                <line x1="204" y1="158" x2="116" y2="158" id="Path-7" stroke-width="2"></line>
                <line x1="203" y1="162" x2="118" y2="162" id="Path-7" stroke-width="2"></line>
                <line x1="201" y1="170" x2="118" y2="170" id="Path-7" stroke-width="2"></line>
                <line x1="197" y1="178" x2="120" y2="178" id="Path-7" stroke-width="2"></line>
                <line x1="256" y1="158" x2="232" y2="158" id="Path-7" stroke-width="2"></line>
                <line x1="252" y1="174" x2="228" y2="174" id="Path-7" stroke-width="2"></line>
                <line x1="244" y1="190" x2="224" y2="190" id="Path-7" stroke-width="2"></line>
                <line x1="236" y1="198" x2="218" y2="198" id="Path-7" stroke-width="2"></line>
                <line x1="96" y1="198" x2="75" y2="198" id="Path-7" stroke-width="2"></line>
                <line x1="87" y1="182" x2="63" y2="182" id="Path-7" stroke-width="2"></line>
                <line x1="72" y1="166" x2="49" y2="166" id="Path-7" stroke-width="2"></line>
                <line x1="92" y1="150" x2="64" y2="150" id="Path-7" stroke-width="2"></line>
                <line x1="229.454545" y1="206" x2="66.5454545" y2="206" id="Path-7" stroke-width="2"></line>
                <line x1="224" y1="214" x2="94" y2="214" id="Path-7" stroke-width="2"></line>
                <line x1="212" y1="222" x2="105.636364" y2="222" id="Path-7" stroke-width="2"></line>
                <line x1="200" y1="230" x2="113.333333" y2="230" id="Path-7" stroke-width="2"></line>
                <line x1="202" y1="238" x2="113.363636" y2="238" id="Path-7" stroke-width="2"></line>
                <line x1="204" y1="246" x2="112" y2="246" id="Path-7" stroke-width="2"></line>
                <line x1="204" y1="254" x2="110" y2="254" id="Path-7" stroke-width="2"></line>
                <line x1="204" y1="262" x2="109" y2="262" id="Path-7" stroke-width="2"></line>
                <line x1="200" y1="270" x2="95" y2="270" id="Path-7" stroke-width="2"></line>
                <line x1="154" y1="278" x2="104.757576" y2="278" id="Path-7" stroke-width="2"></line>
                <line x1="152" y1="286" x2="104.727273" y2="286" id="Path-7" stroke-width="2"></line>
                <line x1="150" y1="290" x2="104.69697" y2="290" id="Path-7" stroke-width="2"></line>
                <line x1="148" y1="294" x2="104.666667" y2="294" id="Path-7" stroke-width="2"></line>
                <line x1="147" y1="298" x2="104.651515" y2="298" id="Path-7" stroke-width="2"></line>
                <line x1="145" y1="302" x2="104.621212" y2="302" id="Path-7" stroke-width="2"></line>
                <line x1="144" y1="306" x2="104.606061" y2="306" id="Path-7" stroke-width="2"></line>
                <line x1="144" y1="310" x2="104.606061" y2="310" id="Path-7" stroke-width="2"></line>
                <line x1="144" y1="314" x2="104.606061" y2="314" id="Path-7" stroke-width="2"></line>
                <line x1="143" y1="318" x2="104.590909" y2="318" id="Path-7" stroke-width="2"></line>
                <line x1="140" y1="326" x2="104.545455" y2="326" id="Path-7" stroke-width="2"></line>
                <line x1="208" y1="326" x2="168.606061" y2="326" id="Path-7" stroke-width="2"></line>
                <line x1="136" y1="342" x2="104.484848" y2="342" id="Path-7" stroke-width="2"></line>
                <line x1="208" y1="342" x2="176.484848" y2="342" id="Path-7" stroke-width="2"></line>
                <line x1="208" y1="358" x2="176.484848" y2="358" id="Path-7" stroke-width="2"></line>
                <line x1="132" y1="358" x2="104.424242" y2="358" id="Path-7" stroke-width="2"></line>
                <line x1="123" y1="374" x2="93.4545455" y2="374" id="Path-7" stroke-width="2"></line>
                <line x1="208" y1="374" x2="180.424242" y2="374" id="Path-7" stroke-width="2"></line>
                <line x1="124" y1="390" x2="100.363636" y2="390" id="Path-7" stroke-width="2"></line>
                <line x1="208" y1="390" x2="184.363636" y2="390" id="Path-7" stroke-width="2"></line>
                <line x1="124" y1="406" x2="100.363636" y2="406" id="Path-7" stroke-width="2"></line>
                <line x1="208" y1="406" x2="184.363636" y2="406" id="Path-7" stroke-width="2"></line>
                <line x1="120" y1="422" x2="100.30303" y2="422" id="Path-7" stroke-width="2"></line>
                <line x1="208" y1="422" x2="188.30303" y2="422" id="Path-7" stroke-width="2"></line>
                <line x1="120" y1="438" x2="100.30303" y2="438" id="Path-7" stroke-width="2"></line>
                <line x1="120" y1="440" x2="100.30303" y2="440" id="Path-7" stroke-width="2"></line>
                <line x1="118" y1="444" x2="96.3333333" y2="444" id="Path-7" stroke-width="2"></line>
                <line x1="119" y1="448" x2="91.4242424" y2="448" id="Path-7" stroke-width="2"></line>
                <line x1="119" y1="452" x2="89.4545455" y2="452" id="Path-7" stroke-width="2"></line>
                <line x1="119" y1="456" x2="85.5151515" y2="456" id="Path-7" stroke-width="2"></line>
                <line x1="116" y1="460" x2="82.5151515" y2="460" id="Path-7" stroke-width="2"></line>
                <line x1="119" y1="430" x2="101.272727" y2="430" id="Path-7" stroke-width="2"></line>
                <line x1="122" y1="414" x2="101.318182" y2="414" id="Path-7" stroke-width="2"></line>
                <line x1="124" y1="398" x2="100" y2="398" id="Path-7" stroke-width="2"></line>
                <line x1="127" y1="382" x2="103" y2="382" id="Path-7" stroke-width="2"></line>
                <line x1="128" y1="366" x2="104" y2="366" id="Path-7" stroke-width="2"></line>
                <line x1="132" y1="350" x2="105" y2="350" id="Path-7" stroke-width="2"></line>
                <line x1="136" y1="334" x2="106" y2="334" id="Path-7" stroke-width="2"></line>
                <line x1="208" y1="334" x2="174" y2="334" id="Path-7" stroke-width="2"></line>
                <line x1="208" y1="350" x2="176" y2="350" id="Path-7" stroke-width="2"></line>
                <line x1="208" y1="366" x2="180" y2="366" id="Path-7" stroke-width="2"></line>
                <line x1="208" y1="382" x2="184" y2="382" id="Path-7" stroke-width="2"></line>
                <line x1="208" y1="398" x2="185" y2="398" id="Path-7" stroke-width="2"></line>
                <line x1="208" y1="414" x2="186" y2="414" id="Path-7" stroke-width="2"></line>
                <line x1="208" y1="430" x2="190" y2="430" id="Path-7" stroke-width="2"></line>
                <line x1="210" y1="438" x2="174.545455" y2="438" id="Path-7" stroke-width="2" transform="translate(192, 438) scale(-1, 1) translate(-192, -438)"></line>
                <line x1="210" y1="440" x2="190.30303" y2="440" id="Path-7" stroke-width="2" transform="translate(200, 440) scale(-1, 1) translate(-200, -440)"></line>
                <line x1="214" y1="444" x2="192.333333" y2="444" id="Path-7" stroke-width="2" transform="translate(203, 444) scale(-1, 1) translate(-203, -444)"></line>
                <line x1="219" y1="448" x2="191.424242" y2="448" id="Path-7" stroke-width="2" transform="translate(205, 448) scale(-1, 1) translate(-205, -448)"></line>
                <line x1="221" y1="452" x2="191.454545" y2="452" id="Path-7" stroke-width="2" transform="translate(206, 452) scale(-1, 1) translate(-206, -452)"></line>
                <line x1="225" y1="456" x2="191.515152" y2="456" id="Path-7" stroke-width="2" transform="translate(208, 456) scale(-1, 1) translate(-208, -456)"></line>
                <line x1="228" y1="460" x2="194.515152" y2="460" id="Path-7" stroke-width="2" transform="translate(211, 460) scale(-1, 1) translate(-211, -460)"></line>
                <line x1="214" y1="442" x2="190.363636" y2="442" id="Path-7" stroke-width="2" transform="translate(202, 442) scale(-1, 1) translate(-202, -442)"></line>
                <line x1="218" y1="446" x2="192.393939" y2="446" id="Path-7" stroke-width="2" transform="translate(205, 446) scale(-1, 1) translate(-205, -446)"></line>
                <line x1="212" y1="450" x2="183.439394" y2="450" id="Path-7" stroke-width="2" transform="translate(197.5, 450) scale(-1, 1) translate(-197.5, -450)"></line>
                <line x1="222" y1="454" x2="191.469697" y2="454" id="Path-7" stroke-width="2" transform="translate(206.5, 454) scale(-1, 1) translate(-206.5, -454)"></line>
                <line x1="226" y1="458" x2="193.5" y2="458" id="Path-7" stroke-width="2" transform="translate(209.5, 458) scale(-1, 1) translate(-209.5, -458)"></line>
                <line x1="230" y1="462" x2="195.530303" y2="462" id="Path-7" stroke-width="2" transform="translate(212.5, 462) scale(-1, 1) translate(-212.5, -462)"></line>
                <line x1="229" y1="464" x2="197.484848" y2="464" id="Path-7" stroke-width="2" transform="translate(213, 464) scale(-1, 1) translate(-213, -464)"></line>
                <line x1="120" y1="442" x2="96.3636364" y2="442" id="Path-7" stroke-width="2"></line>
                <line x1="316" y1="460" x2="-8.77076189e-15" y2="460" id="Path-7" stroke-width="2"></line>
                <line x1="239.005076" y1="464" x2="76.9949239" y2="464" id="Path-7" stroke-width="2"></line>
                <line x1="118" y1="446" x2="92.3939394" y2="446" id="Path-7" stroke-width="2"></line>
                <line x1="119" y1="450" x2="90.4393939" y2="450" id="Path-7" stroke-width="2"></line>
                <line x1="119" y1="454" x2="88.469697" y2="454" id="Path-7" stroke-width="2"></line>
                <line x1="117" y1="458" x2="84.5" y2="458" id="Path-7" stroke-width="2"></line>
                <line x1="115" y1="462" x2="80.530303" y2="462" id="Path-7" stroke-width="2"></line>
                <line x1="113" y1="464" x2="81.4848485" y2="464" id="Path-7" stroke-width="2"></line>
                <line x1="204" y1="278" x2="156.727273" y2="278" id="Path-7" stroke-width="2"></line>
                <line x1="204" y1="282" x2="158.69697" y2="282" id="Path-7" stroke-width="2"></line>
                <line x1="204" y1="284" x2="159.681818" y2="284" id="Path-7" stroke-width="2"></line>
                <line x1="205" y1="288" x2="160.681818" y2="288" id="Path-7" stroke-width="2"></line>
                <line x1="206" y1="292" x2="160.69697" y2="292" id="Path-7" stroke-width="2"></line>
                <line x1="207" y1="296" x2="162.666667" y2="296" id="Path-7" stroke-width="2"></line>
                <line x1="208" y1="300" x2="162.666667" y2="300" id="Path-7" stroke-width="2"></line>
                <line x1="208" y1="304" x2="163.666667" y2="304" id="Path-7" stroke-width="2"></line>
                <line x1="208" y1="308" x2="164.666667" y2="308" id="Path-7" stroke-width="2"></line>
                <line x1="208" y1="312" x2="166.636364" y2="312" id="Path-7" stroke-width="2"></line>
                <line x1="204" y1="280" x2="158.69697" y2="280" id="Path-7" stroke-width="2"></line>
                <line x1="153" y1="282" x2="105" y2="282" id="Path-7" stroke-width="2"></line>
                <line x1="153" y1="280" x2="118.055556" y2="280" id="Path-7" stroke-width="2"></line>
                <line x1="152" y1="284" x2="112" y2="284" id="Path-7" stroke-width="2"></line>
                <line x1="151" y1="288" x2="119" y2="288" id="Path-7" stroke-width="2"></line>
                <line x1="149" y1="292" x2="113" y2="292" id="Path-7" stroke-width="2"></line>
                <line x1="146" y1="300" x2="110" y2="300" id="Path-7" stroke-width="2"></line>
                <line x1="147" y1="296" x2="116" y2="296" id="Path-7" stroke-width="2"></line>
                <line x1="144" y1="308" x2="107" y2="308" id="Path-7" stroke-width="2"></line>
                <line x1="144" y1="312" x2="110" y2="312" id="Path-7" stroke-width="2"></line>
                <line x1="145" y1="304" x2="114" y2="304" id="Path-7" stroke-width="2"></line>
                <line x1="142" y1="322" x2="123.111111" y2="322" id="Path-7" stroke-width="2"></line>
                <line x1="139" y1="330" x2="120.111111" y2="330" id="Path-7" stroke-width="2"></line>
                <line x1="136" y1="338" x2="119" y2="338" id="Path-7" stroke-width="2"></line>
                <line x1="135" y1="346" x2="119.888889" y2="346" id="Path-7" stroke-width="2"></line>
                <line x1="132" y1="354" x2="118.777778" y2="354" id="Path-7" stroke-width="2"></line>
                <line x1="130" y1="362" x2="118.666667" y2="362" id="Path-7" stroke-width="2"></line>
                <line x1="128" y1="370" x2="118.555556" y2="370" id="Path-7" stroke-width="2"></line>
                <line x1="128" y1="378" x2="111" y2="378" id="Path-7" stroke-width="2"></line>
                <line x1="126" y1="386" x2="110.888889" y2="386" id="Path-7" stroke-width="2"></line>
                <line x1="124" y1="394" x2="111.722222" y2="394" id="Path-7" stroke-width="2"></line>
                <line x1="124" y1="402" x2="113.611111" y2="402" id="Path-7" stroke-width="2"></line>
                <line x1="123" y1="410" x2="113.555556" y2="410" id="Path-7" stroke-width="2"></line>
                <line x1="121" y1="418" x2="111.555556" y2="418" id="Path-7" stroke-width="2"></line>
                <line x1="119" y1="426" x2="109.555556" y2="426" id="Path-7" stroke-width="2"></line>
                <line x1="120" y1="434" x2="110.555556" y2="434" id="Path-7" stroke-width="2"></line>
                <line x1="204" y1="286" x2="159.681818" y2="286" id="Path-7" stroke-width="2"></line>
                <line x1="205" y1="290" x2="160.681818" y2="290" id="Path-7" stroke-width="2"></line>
                <line x1="207" y1="294" x2="161.69697" y2="294" id="Path-7" stroke-width="2"></line>
                <line x1="208" y1="298" x2="162.681818" y2="298" id="Path-7" stroke-width="2"></line>
                <line x1="208" y1="302" x2="162.666667" y2="302" id="Path-7" stroke-width="2"></line>
                <line x1="208" y1="306" x2="163.666667" y2="306" id="Path-7" stroke-width="2"></line>
                <line x1="208" y1="310" x2="165.666667" y2="310" id="Path-7" stroke-width="2"></line>
                <line x1="208" y1="314" x2="168.606061" y2="314" id="Path-7" stroke-width="2"></line>
                <line x1="208" y1="318" x2="168.606061" y2="318" id="Path-7" stroke-width="2"></line>
                <line x1="208" y1="322" x2="192" y2="322" id="Path-7" stroke-width="2"></line>
                <line x1="208" y1="330" x2="192" y2="330" id="Path-7" stroke-width="2"></line>
                <line x1="208" y1="338" x2="193" y2="338" id="Path-7" stroke-width="2"></line>
                <line x1="208" y1="346" x2="193" y2="346" id="Path-7" stroke-width="2"></line>
                <line x1="208" y1="354" x2="200" y2="354" id="Path-7" stroke-width="2"></line>
                <line x1="208" y1="362" x2="202" y2="362" id="Path-7" stroke-width="2"></line>
                <line x1="208" y1="370" x2="197" y2="370" id="Path-7" stroke-width="2"></line>
                <line x1="208" y1="386" x2="198" y2="386" id="Path-7" stroke-width="2"></line>
                <line x1="208" y1="394" x2="200" y2="394" id="Path-7" stroke-width="2"></line>
                <line x1="208" y1="402" x2="200" y2="402" id="Path-7" stroke-width="2"></line>
                <line x1="208" y1="410" x2="200" y2="410" id="Path-7" stroke-width="2"></line>
                <line x1="208" y1="418" x2="200" y2="418" id="Path-7" stroke-width="2"></line>
                <line x1="208" y1="426" x2="200" y2="426" id="Path-7" stroke-width="2"></line>
                <line x1="208" y1="434" x2="200" y2="434" id="Path-7" stroke-width="2"></line>
                <line x1="208" y1="378" x2="194" y2="378" id="Path-7" stroke-width="2"></line>
                <line x1="203" y1="242" x2="117.318182" y2="242" id="Path-7" stroke-width="2"></line>
                <line x1="204" y1="244" x2="125.212121" y2="244" id="Path-7" stroke-width="2"></line>
                <line x1="204" y1="248" x2="125.212121" y2="248" id="Path-7" stroke-width="2"></line>
                <line x1="204" y1="252" x2="123.242424" y2="252" id="Path-7" stroke-width="2"></line>
                <line x1="204" y1="256" x2="121.272727" y2="256" id="Path-7" stroke-width="2"></line>
                <line x1="204" y1="260" x2="125.212121" y2="260" id="Path-7" stroke-width="2"></line>
                <line x1="204" y1="264" x2="125.212121" y2="264" id="Path-7" stroke-width="2"></line>
                <line x1="204" y1="268" x2="123.242424" y2="268" id="Path-7" stroke-width="2"></line>
                <line x1="192" y1="272" x2="108.287879" y2="272" id="Path-7" stroke-width="2"></line>
                <line x1="204" y1="276" x2="120.287879" y2="276" id="Path-7" stroke-width="2"></line>
                <line x1="204" y1="250" x2="118" y2="250" id="Path-7" stroke-width="2"></line>
                <line x1="204" y1="258" x2="114" y2="258" id="Path-7" stroke-width="2"></line>
                <line x1="204" y1="266" x2="117" y2="266" id="Path-7" stroke-width="2"></line>
                <line x1="204" y1="274" x2="106" y2="274" id="Path-7" stroke-width="2"></line>
                <line x1="200" y1="234" x2="115" y2="234" id="Path-7" stroke-width="2"></line>
                <line x1="248" y1="182" x2="227" y2="182" id="Path-7" stroke-width="2"></line>
                <line x1="256" y1="166" x2="231" y2="166" id="Path-7" stroke-width="2"></line>
                <line x1="201" y1="166" x2="118" y2="166" id="Path-7" stroke-width="2"></line>
                <line x1="200" y1="174" x2="120" y2="174" id="Path-7" stroke-width="2"></line>
                <line x1="196" y1="182" x2="120" y2="182" id="Path-7" stroke-width="2"></line>
                <line x1="196" y1="186" x2="120" y2="186" id="Path-7" stroke-width="2"></line>
                <line x1="196" y1="194" x2="120" y2="194" id="Path-7" stroke-width="2"></line>
                <line x1="196" y1="202" x2="120" y2="202" id="Path-7" stroke-width="2"></line>
                <line x1="196" y1="210" x2="120" y2="210" id="Path-7" stroke-width="2"></line>
                <line x1="188" y1="218" x2="128" y2="218" id="Path-7" stroke-width="2"></line>
                <line x1="192" y1="226" x2="115" y2="226" id="Path-7" stroke-width="2"></line>
                <line x1="197" y1="228" x2="124" y2="228" id="Path-7" stroke-width="2"></line>
                <line x1="197" y1="232" x2="126" y2="232" id="Path-7" stroke-width="2"></line>
                <line x1="200" y1="236" x2="123" y2="236" id="Path-7" stroke-width="2"></line>
                <line x1="203" y1="240" x2="123" y2="240" id="Path-7" stroke-width="2"></line>
                <line x1="196" y1="190" x2="120" y2="190" id="Path-7" stroke-width="2"></line>
                <line x1="196" y1="198" x2="120" y2="198" id="Path-7" stroke-width="2"></line>
                <line x1="216" y1="94" x2="168" y2="94" id="Path-7" stroke-width="2"></line>
                <line x1="148" y1="94" x2="103" y2="94" id="Path-7" stroke-width="2"></line>
                <line x1="140" y1="90.5" x2="107" y2="90.5" id="Path-7" stroke-width="2"></line>
                <line x1="140" y1="86.5" x2="112" y2="86.5" id="Path-7" stroke-width="2"></line>
                <line x1="209" y1="90.5" x2="177" y2="90.5" id="Path-7" stroke-width="2"></line>
                <line x1="205" y1="86.5" x2="177" y2="86.5" id="Path-7" stroke-width="2"></line>
                <line x1="221" y1="98" x2="99" y2="98" id="Path-7" stroke-width="2"></line>
                <line x1="218" y1="106" x2="85" y2="106" id="Path-7" stroke-width="2"></line>
                <line x1="232" y1="114" x2="89" y2="114" id="Path-7" stroke-width="2"></line>
                <line x1="154" y1="30" x2="147" y2="30" id="Path-7" stroke-width="2"></line>
                <line x1="164" y1="38" x2="156" y2="38" id="Path-7" stroke-width="2"></line>
                <line x1="164" y1="48" x2="156" y2="48" id="Path-7" stroke-width="2"></line>
                <line x1="172" y1="58" x2="150" y2="58" id="Path-7" stroke-width="2"></line>
                <line x1="174" y1="66" x2="141" y2="66" id="Path-7" stroke-width="2"></line>
                <line x1="177" y1="74" x2="157" y2="74" id="Path-7" stroke-width="2"></line>
                <line x1="168" y1="46" x2="152" y2="46" id="Path-7" stroke-width="2"></line>
                <line x1="180" y1="30" x2="168" y2="30" id="Path-7" stroke-width="2"></line>
                <line x1="156" y1="26" x2="144" y2="26" id="Path-7" stroke-width="2"></line>
                <line x1="180" y1="26" x2="164" y2="26" id="Path-7" stroke-width="2"></line>
                <line x1="180" y1="22" x2="172" y2="22" id="Path-7" stroke-width="2"></line>
                <line x1="180" y1="18" x2="172" y2="18" id="Path-7" stroke-width="2"></line>
                <line x1="180" y1="20" x2="173" y2="20" id="Path-7" stroke-width="2"></line>
                <line x1="179" y1="24" x2="174" y2="24" id="Path-7" stroke-width="2"></line>
                <line x1="178" y1="28" x2="175" y2="28" id="Path-7" stroke-width="2"></line>
            </g>
        </g>
    </g>
</svg>