<?xml version="1.0" encoding="UTF-8"?>
<svg width="534px" height="120px" viewBox="0 0 534 120" version="1.1" xmlns="http://www.w3.org/2000/svg" xmlns:xlink="http://www.w3.org/1999/xlink">
    <title>headroom-wordmark-white</title>
    <g id="headroom-wordmark-white" stroke="none" stroke-width="1" fill="none" fill-rule="evenodd">
        <path d="M485,41 C492.311712,41 498.072957,43.8710871 502.00063,49.0752859 L502,20 L518,20 L518,100 L502,100 L502,71 C502,60.473118 497.609257,54 490,54 C482.390743,54 478,60.473118 478,71 L478,100 L462,100 L462,71 C462,52.4231493 470.415592,41 485,41 Z M369,41 C383.584408,41 392,52.4231493 392,71 C391.833594,89.2490162 383.438564,101 369,101 C361.689217,101 355.928506,98.1296423 352.000867,92.9266975 L352,100 L336,100 L336,42 L352,42 L352.000867,49.0733025 C355.928506,43.8703577 361.689217,41 369,41 Z M364,54 C356.390743,54 352,60.473118 352,71 C352.112369,81.2858414 356.489565,88 364,88 C371.609257,88 376,81.526882 376,71 C376,60.473118 371.609257,54 364,54 Z M288,20 L288.000867,49.0733025 C291.928506,43.8703577 297.689217,41 305,41 C319.584408,41 328,52.4231493 328,71 C327.833594,89.2490162 319.438564,101 305,101 C297.689217,101 291.928506,98.1296423 288.000867,92.9266975 L288,100 L272,100 L272,20 L288,20 Z M300,54 C292.390743,54 288,60.473118 288,71 C288.112369,81.2858414 292.489565,88 300,88 C307.609257,88 312,81.526882 312,71 C312,60.473118 307.609257,54 300,54 Z M64,67 L64,100 L48,100 L48,67 L64,67 Z M32,67 L32,100 L16,100 L16,67 L32,67 Z M67,41 C72.4220831,41 76.8120447,43.0051235 80.0007083,46.6780997 L80,42 L96,42 L96,100 L80,100 L80,67 C80,58.9500314 77.0728377,54 72,54 C66.9271623,54 64,58.9500314 64,67 L48,67 C47.9072984,59.1787282 44.9910177,54 40,54 C34.9271623,54 32,58.9500314 32,67 L16,67 C16,50.9000627 22.9520105,41 35,41 C42.39851,41 47.8753137,44.733338 51.0006034,51.3431481 C54.1246863,44.733338 59.60149,41 67,41 Z M229,41 C227.96875,41 226.968343,41.0571131 225.999573,41.16983 L226,55.1121752 C228.192155,54.3707251 230.858821,54 234,54 C241.609257,54 246,60.473118 246,71 L246,49.0742942 C242.072226,43.8707224 236.311248,41 229,41 Z M262,42 L246,42 L246,100 L262,100 L262,42 Z M438.444791,77.0005183 C437.042054,83.9316883 433.032434,88 427,88 C422.276611,88 418.921237,86.2421305 416.783204,83.0523898 L400.276403,84.6000234 C404.27741,94.9902738 413.521217,101 427,101 C444.754932,101 455,89.5768507 455,71 C455,52.4231493 444.754932,41 427,41 C409.245068,41 399,52.4231493 399,71 C399,73.0932844 399.130085,75.0957359 399.386341,77.001246 L438.444791,77.0005183 Z M427,54 C433.032722,54 437.042437,58.0687003 438.444992,65.0004748 L415.555008,65.0004748 C416.957563,58.0687003 420.967278,54 427,54 Z M195,41 C177.245068,41 167,52.4231493 167,71 C167,89.5768507 177.245068,101 195,101 C212.754932,101 223,89.5768507 223,71 C223,52.4231493 212.754932,41 195,41 Z M195,54 C202.609257,54 207,60.473118 207,71 C207,81.526882 202.609257,88 195,88 C187.390743,88 183,81.526882 183,71 C183,60.473118 187.390743,54 195,54 Z M132,41 C114.245068,41 104,52.4231493 104,71 C104,89.5768507 114.245068,101 132,101 C149.754932,101 160,89.5768507 160,71 C160,52.4231493 149.754932,41 132,41 Z M132,54 C139.609257,54 144,60.473118 144,71 C144,81.526882 139.609257,88 132,88 C124.390743,88 120,81.526882 120,71 C120,60.473118 124.390743,54 132,54 Z" id="Shape" fill="#181818" transform="translate(267, 60.5) scale(-1, 1) translate(-267, -60.5)"></path>
    </g>
</svg>